<svg width="77" height="92" viewBox="0 0 77 92" fill="none" xmlns="http://www.w3.org/2000/svg">
<path d="M38.458 1L34.4308 7.8395H26.6861L30.7133 15.3008L26.0665 23.3838H17.3925L13.0555 16.2334L9.02831 23.3838H0.973877L5.0011 30.5342L1.28366 37.6846H9.3381L13.6751 46.0785L9.3381 53.8507H0.973877L5.0011 61.312L1.28366 68.7732H9.3381L13.3653 75.6127L17.3925 68.7732H26.0665L30.4036 76.5454L26.6861 83.6958H34.7406L38.458 90.8462L42.4852 83.6958H50.5396L46.5124 76.2345L50.8494 68.7732H59.8332L63.8604 75.6127L68.1974 68.7732H75.9421L71.9149 61.0011L75.9421 53.8507H67.5779L63.5507 46.0785L67.5779 37.9955H75.9421L71.9149 30.5342L75.9421 23.3838H68.1974L63.8604 16.2334L59.8332 23.3838H50.8494L46.5124 15.3008L50.8494 7.8395H42.795L38.458 1Z" stroke="black" stroke-width="0.613974" stroke-linecap="round" stroke-linejoin="round"/>
</svg>
