<svg width="80" height="92" viewBox="0 0 80 92" fill="none" xmlns="http://www.w3.org/2000/svg">
<path d="M61.5762 23.2592L62.8287 21.0972L61.3138 18.3038L64.2136 18.2907L65.7793 15.5883L67.1898 18.5618L70.1176 18.0843L68.552 20.7868L69.9905 23.296L72.8903 23.2829L74.3516 20.7606L75.6857 23.4499L78.6899 23.2566L77.333 25.5988L78.8479 28.3921L75.7673 28.3013L74.4104 30.6434L75.7445 33.3327L78.8531 32.9593L77.2874 35.6618L78.9831 38.5591L76.0069 38.2881L74.3368 41.1707L72.9263 38.1972L69.9221 38.3905L68.6695 40.5524L70.3652 43.4498L67.2082 43.0747L65.7469 45.597L67.1854 48.1062L70.1896 47.9129L68.624 50.6154L70.0625 53.1246L72.6008 52.9035L74.3472 50.305L75.8621 53.0984L78.7619 53.0853L77.3006 55.6076L78.7391 58.1167L75.6585 58.0259L74.3016 60.368L75.6357 63.0573L78.7443 62.6839L77.283 65.2062L78.7979 67.9996L75.7937 68.1928L74.3324 70.7151L72.9983 68.0258L70.0985 68.0389L68.7415 70.381L70.18 72.8902L67.2802 72.9033L65.8189 75.4256L64.4848 72.7363L61.4806 72.9296L62.9419 70.4073L61.6078 67.7179L58.6036 67.9112L57.1423 70.4335L55.8081 67.7442L52.8039 67.9374L51.447 70.2796L52.7812 72.9689L50.0901 72.6217L48.6288 75.144L49.9629 77.8334L52.9671 77.6401L51.5058 80.1624L53.3058 82.8796L50.2253 82.7887L48.5552 85.6713L47.2491 82.5176L44.2449 82.7109L42.7836 85.2332L44.5836 87.9504L41.6838 87.9635L40.0137 90.8462L38.5268 87.5885L35.8842 87.9897L37.3455 85.4675L35.6498 82.5701L33.1115 82.7912L31.5458 85.4937L30.0309 82.7003L27.2075 82.9976L28.6688 80.4753L27.2303 77.9661L30.2345 77.7728L31.5914 75.4307L30.2573 72.7413L27.2531 72.9346L28.7144 70.4123L27.3803 67.723L24.3761 67.9163L22.8104 70.6187L21.3999 67.6452L18.5764 67.9425L17.1151 70.4648L18.5536 72.974L15.6538 72.9871L14.1925 75.5094L12.8584 72.82L9.8542 73.0133L11.3155 70.491L9.98137 67.8017L6.97718 67.9949L5.51587 70.5172L4.18174 67.8279L1.17755 68.0212L2.63885 65.4989L1.20034 62.9897L4.10016 62.9766L5.45708 60.6344L4.12295 57.9451L1.11876 58.1384L2.47568 55.7962L1.14155 53.1069L4.14574 52.9136L5.60705 50.3913L7.12194 53.1846L10.1261 52.9914L11.3787 50.8294L9.94017 48.3202L12.84 48.3071L14.1969 45.9649L12.8628 43.2756L9.85859 43.4689L11.4006 40.993L9.98576 38.2572L7.08595 38.2703L5.52026 40.9728L4.29051 38.1033L1.07756 38.6569L2.64324 35.9544L1.02397 33.3412L4.10455 33.4321L5.46147 31.09L4.12734 28.4006L0.942383 28.4899L2.50807 25.7874L1.25032 23.3823L3.96937 23.2651L5.53506 20.5627L7.04995 23.356L9.66462 23.4191L11.1259 20.8968L9.68742 18.3876L12.5872 18.3745L14.2573 15.4918L15.6678 18.4654L18.8528 18.3761L17.2871 21.0786L18.5448 23.4837L21.2639 23.3666L22.7252 20.8443L24.0593 23.5337L27.0635 23.3404L28.3161 21.1784L26.9819 18.4891L29.9861 18.2958L31.2387 16.1338L29.9045 13.4445L26.9003 13.6377L28.3617 11.1154L26.5616 8.39824L29.9273 8.41297L31.493 5.7105L32.7228 8.58002L35.6226 8.56691L36.9795 6.22477L35.6454 3.53542L38.5452 3.5223L40.0065 1L41.3406 3.68935L44.3448 3.49607L42.8835 6.01837L44.322 8.52756L47.0411 8.41044L48.5024 5.88814L50.0173 8.6815L53.0215 8.48822L51.5602 11.0105L52.9987 13.5197L49.9945 13.713L48.6376 16.0551L49.8953 18.4603L53.0803 18.371L51.5146 21.0735L52.8767 23.2985L55.4914 23.3616L57.1615 20.4789L58.572 23.4525L61.5762 23.2592Z" stroke="black" stroke-width="0.613974" stroke-linecap="round" stroke-linejoin="round"/>
</svg>
