<svg width="264" height="8" viewBox="0 0 264 8" fill="none" xmlns="http://www.w3.org/2000/svg">
<g clip-path="url(#clip0_114_9)">
<path d="M0.992334 4.49997C0.718269 4.49997 0.496094 4.27611 0.496094 3.99997C0.496094 3.72383 0.718269 3.49997 0.992334 3.49997V4.49997ZM263.359 3.64642C263.552 3.84168 263.552 4.15826 263.359 4.35352L260.201 7.5355C260.006 7.73077 259.692 7.73077 259.498 7.5355C259.304 7.34024 259.304 7.02366 259.498 6.8284L262.306 3.99997L259.498 1.17154C259.304 0.976285 259.304 0.659702 259.498 0.46444C259.692 0.269178 260.006 0.269178 260.201 0.46444L263.359 3.64642ZM0.992334 3.49997H132V4.49997H0.992334V3.49997ZM132 3.49997H263.007V4.49997H132V3.49997Z" fill="#FFF7F1"/>
</g>
<defs>
<clipPath id="clip0_114_9">
<rect width="264" height="8" fill="white"/>
</clipPath>
</defs>
</svg>
