<svg width="120" height="8" viewBox="0 0 120 8" fill="none" xmlns="http://www.w3.org/2000/svg">
<g clip-path="url(#clip0_114_7)">
<path d="M0.983502 4.49997C0.711887 4.49997 0.491699 4.27611 0.491699 3.99997C0.491699 3.72383 0.711887 3.49997 0.983502 3.49997V4.49997ZM119.364 3.64642C119.556 3.84168 119.556 4.15826 119.364 4.35352L116.235 7.5355C116.042 7.73077 115.731 7.73077 115.538 7.5355C115.346 7.34024 115.346 7.02366 115.538 6.8284L118.321 3.99997L115.538 1.17154C115.346 0.976285 115.346 0.659702 115.538 0.46444C115.731 0.269178 116.042 0.269178 116.235 0.46444L119.364 3.64642ZM0.983502 3.49997H119.016V4.49997H0.983502V3.49997Z" fill="#FFF7F1"/>
</g>
<defs>
<clipPath id="clip0_114_7">
<rect width="120" height="8" fill="white"/>
</clipPath>
</defs>
</svg>
